<?xml version="1.0" encoding="UTF-8"?>
<svg version="1.1" viewBox="0 0 330 330" xmlns="http://www.w3.org/2000/svg">
  <path d="m99 20c-22 0-28 16-28 28s4 17 11 22c-10 9-15 25-15 50s5 43 19 57 34 19 57 21c-13 0-23 7-23 17s-4 17-10 20-14 2-20-1c2 11 12 23 24 23-2 6-11 13-20 16 8 10 20.131 10 29 5 2.1308 5 2 14-5 23 14 0 26-5 30.021-14 0.97852 8 5.9785 14 16.979 23 11-9 16-15 17-23 4 9 16 14 30 14-7-9-7-18-5-23 9 5 21 5 29-5-9-3-18-10-20-16 12 0 22-12 24-23-6 3-14 4-20 1s-10-10-10-20-10-17-23-17c23-2 43-7 57-21s19-32 19-57-5-41-15-50c7-5 11-10 11-22s-6-28-28-28-28 6-32 24c-11-5-31-5-34-5s-24 0-34 5c-3-18-10-24-32-24zm27.672 41.588c5.5746-0.11013 10.9 0.71971 15.352 2.8555 18.311 8.785 22.345 32.943 23.271 52.172 1.932 40.09 4.4889 60.703-15.703 70.617-14.88 7.306-45.456-4.6248-57.471-14.926-15.265-13.087-17.357-35.336-17.576-53.301-0.215-17.63 5.1029-35.427 14.938-44.326 7.0689-6.3963 22.943-12.81 37.189-13.092zm-0.64062 57.586c-9.8347 0-14.752 13.349-14.752 22.248s4.9173 22.248 14.752 22.248 14.815-13.349 14.752-22.248-4.9172-22.248-14.752-22.248zm78.676 0c9.8347 0 14.752 13.349 14.752 22.248s-4.9174 22.248-14.752 22.248c-9.8347 0-14.752-13.349-14.752-22.248s4.9174-22.248 14.752-22.248z" fill="#0a1128"/>
  <g transform="scale(.99075 1.0093)" stroke-width="2.247">
    <path transform="scale(1.0093 .99075)" d="m183.98 210.46-3.4668 6.6152-1.248 2.3808-23.877 45.559h2.9824l23.064-44.006 23.104 16.547v0.36329l-29.387 21.047v3.2656l32.236-23.043v-2.9024l-24.705-17.66 4.2793-8.166z" fill="#6bf7f7"/>
    <path transform="scale(1.0093 .99075)" d="m171.63 210.46-23.064 44.008-23.104-16.549v-0.36329l29.385-21.047v-3.2656l-32.234 23.043v2.9024l24.705 17.66-4.2793 8.166h2.9824l3.4668-6.6152 1.2461-2.3789 23.879-45.561z" fill="#ff893a"/>
  </g>
</svg>
